HIERARCHY
ROOT joint_Root
{
	OFFSET 0.0 0.0 0.0
	CHANNELS 6 Xposition Yposition Zposition Zrotation Xrotation Yrotation 
	JOINT Hips
	{
		OFFSET 4.5925 91.4895 -427.239
		CHANNELS 6 Xposition Yposition Zposition Zrotation Xrotation Yrotation 
		JOINT Spine
		{
			OFFSET 15.7357 0.0 0.0
			CHANNELS 6 Xposition Yposition Zposition Zrotation Xrotation Yrotation 
			JOINT Chest
			{
				OFFSET 8.98455 -0.406207 0.0
				CHANNELS 6 Xposition Yposition Zposition Zrotation Xrotation Yrotation 
				JOINT Neck
				{
					OFFSET 16.3773 0.0 0.0
					CHANNELS 6 Xposition Yposition Zposition Zrotation Xrotation Yrotation 
					JOINT Head
					{
						OFFSET 6.45672 0.0 0.0
						CHANNELS 6 Xposition Yposition Zposition Zrotation Xrotation Yrotation 
						End Site
						{
							OFFSET 0.0 0.0 0.0
						}
					}
				}
				JOINT Shoulder_L
				{
					OFFSET 12.9942 -0.242716 4.98039
					CHANNELS 6 Xposition Yposition Zposition Zrotation Xrotation Yrotation 
					JOINT UpperArm_L
					{
						OFFSET 5.34809 0.0 0.0
						CHANNELS 6 Xposition Yposition Zposition Zrotation Xrotation Yrotation 
						JOINT LowerArm_L
						{
							OFFSET 24.3286 1.87007e-05 0.0
							CHANNELS 6 Xposition Yposition Zposition Zrotation Xrotation Yrotation 
							JOINT Hand_L
							{
								OFFSET 22.2916 0.0 0.0
								CHANNELS 6 Xposition Yposition Zposition Zrotation Xrotation Yrotation 
								End Site
								{
									OFFSET 0.0 0.0 0.0
								}
							}
						}
					}
				}
				JOINT Shoulder_R
				{
					OFFSET 12.9945 -0.242716 -4.98039
					CHANNELS 6 Xposition Yposition Zposition Zrotation Xrotation Yrotation 
					JOINT UpperArm_R
					{
						OFFSET -5.34813 0.0 0.0
						CHANNELS 6 Xposition Yposition Zposition Zrotation Xrotation Yrotation 
						JOINT LowerArm_R
						{
							OFFSET -24.3289 0.000322201 0.0
							CHANNELS 6 Xposition Yposition Zposition Zrotation Xrotation Yrotation 
							JOINT Hand_R
							{
								OFFSET -22.2915 -0.000108084 0.0
								CHANNELS 6 Xposition Yposition Zposition Zrotation Xrotation Yrotation 
								End Site
								{
									OFFSET 0.0 0.0 0.0
								}
							}
						}
					}
				}
			}
		}
		JOINT UpperLeg_L
		{
			OFFSET -2.19248 -6.46944 0.0
			CHANNELS 6 Xposition Yposition Zposition Zrotation Xrotation Yrotation 
			JOINT LowerLeg_L
			{
				OFFSET 39.0811 0.0 -1.23785e-05
				CHANNELS 6 Xposition Yposition Zposition Zrotation Xrotation Yrotation 
				JOINT Foot_L
				{
					OFFSET 40.9854 0.0 -1.26872e-05
					CHANNELS 6 Xposition Yposition Zposition Zrotation Xrotation Yrotation 
					JOINT Toes_L
					{
						OFFSET 11.7543 0.0 0.0
						CHANNELS 6 Xposition Yposition Zposition Zrotation Xrotation Yrotation 
						End Site
						{
							OFFSET 0.0 0.0 0.0
						}
					}
				}
			}
		}
		JOINT UpperLeg_R
		{
			OFFSET -2.19251 6.46944 0.0
			CHANNELS 6 Xposition Yposition Zposition Zrotation Xrotation Yrotation 
			JOINT LowerLeg_R
			{
				OFFSET -39.0811 -0.00228153 -0.0401928
				CHANNELS 6 Xposition Yposition Zposition Zrotation Xrotation Yrotation 
				JOINT Foot_R
				{
					OFFSET -40.9854 0.0 0.0
					CHANNELS 6 Xposition Yposition Zposition Zrotation Xrotation Yrotation 
					JOINT Toes_R
					{
						OFFSET -11.7543 0.0 0.0
						CHANNELS 6 Xposition Yposition Zposition Zrotation Xrotation Yrotation 
						End Site
						{
							OFFSET 0.0 0.0 0.0
						}
					}
				}
			}
		}
	}
}
MOTION
Frames:	5
Frame Time:	0.0333333
0.000000 0.000000 0.000000 0.000000 0.000000 -0.000000 -0.934509 90.050000 -1.371220 89.014900 -3.859490 14.328700 15.735700 0.000005 -0.000001 88.808600 77.492200 -89.008800 8.984550 -0.406207 -0.000000 17.243700 -0.527779 -0.321017 16.377300 -0.000001 -0.000001 7.941660 -3.774940 2.493800 6.456720 -0.000001 -0.000000 -0.803141 -3.070250 0.850545 12.994200 -0.242716 4.980390 -91.422200 6.872040 -78.277900 5.348090 -0.000007 -0.000001 -58.227200 34.322600 -26.139200 24.328600 0.000019 0.000005 9.829450 21.306900 -25.492500 22.291600 -0.000001 0.000005 11.529400 5.241490 1.656520 12.994500 -0.242716 -4.980390 89.121200 11.633800 -85.650200 -5.348130 -0.000001 -0.000004 -57.757400 35.178100 -21.465800 -24.328900 0.000322 -0.000009 2.869000 6.397460 -24.225100 -22.291500 -0.000108 -0.000004 15.117600 5.384340 -2.435480 -2.192480 -6.469440 -0.000000 -173.824000 -10.407100 1.045110 39.081100 -0.000007 -0.000012 -0.233828 0.331621 35.188400 40.985400 -0.000006 -0.000013 0.239684 4.367130 -71.676100 11.754300 -0.000000 0.000003 -0.000159 -0.001526 -16.635500 -2.192510 6.469440 -0.000001 173.611000 19.683600 -177.478000 -39.081100 -0.002282 -0.040193 -0.247244 0.369160 34.163800 -40.985400 0.000008 0.000006 3.945190 12.846800 -71.819800 -11.754300 -0.000006 -0.000006 -0.002349 -0.033003 -17.915100
0.000000 0.000000 0.000000 0.000000 0.000000 -0.000000 -0.933326 90.050700 -1.428720 89.031100 -3.830820 14.387900 15.735700 0.000005 -0.000001 88.750600 77.470700 -88.955600 8.984550 -0.406207 -0.000000 17.286300 -0.554036 -0.326444 16.377300 -0.000001 -0.000001 7.919700 -3.761890 2.488190 6.456720 -0.000001 -0.000000 -0.790833 -3.029340 0.837883 12.994200 -0.242716 4.980390 -91.427200 6.887310 -78.262900 5.348090 -0.000007 -0.000001 -58.459000 33.615800 -25.940900 24.328600 0.000019 0.000005 10.167900 21.083200 -26.499800 22.291600 -0.000001 0.000005 11.956600 5.239410 1.711010 12.994500 -0.242716 -4.980390 89.109800 11.649700 -85.599600 -5.348130 -0.000001 -0.000004 -57.859800 34.692800 -21.366600 -24.328900 0.000322 -0.000009 3.040780 6.460140 -25.281600 -22.291500 -0.000108 -0.000004 15.265800 5.386410 -2.500740 -2.192480 -6.469440 -0.000000 -173.846000 -10.370900 1.054520 39.081100 -0.000007 -0.000012 -0.231111 0.327698 35.194100 40.985400 -0.000006 -0.000013 0.250597 4.388830 -71.637700 11.754300 -0.000000 0.000003 -0.000158 -0.001516 -16.635100 -2.192510 6.469440 -0.000001 173.593000 19.683900 -177.469000 -39.081100 -0.002282 -0.040193 -0.244740 0.365160 34.186400 -40.985400 0.000008 0.000006 3.935040 12.792300 -71.789500 -11.754300 -0.000006 -0.000006 -0.002445 -0.034159 -17.962200
0.000000 0.000000 0.000000 0.000000 0.000000 -0.000000 -0.922805 90.054000 -1.507740 89.026000 -3.882170 14.400700 15.735700 0.000005 -0.000001 88.813100 77.470400 -89.016600 8.984550 -0.406207 -0.000000 17.287400 -0.527072 -0.327546 16.377300 -0.000001 -0.000001 7.891450 -3.757360 2.465680 6.456720 -0.000001 -0.000000 -0.730037 -3.033540 0.884911 12.994200 -0.242716 4.980390 -91.428500 6.879500 -78.239600 5.348090 -0.000007 -0.000001 -58.840100 32.711600 -25.615200 24.328600 0.000019 0.000005 10.639400 20.849800 -27.825400 22.291600 -0.000001 0.000005 12.452600 5.236200 1.794620 12.994500 -0.242716 -4.980390 89.093000 11.682600 -85.529500 -5.348130 -0.000001 -0.000004 -57.978300 34.065200 -21.173100 -24.328900 0.000322 -0.000009 3.302790 6.590090 -26.702100 -22.291500 -0.000108 -0.000004 15.586900 5.387460 -2.533920 -2.192480 -6.469440 -0.000000 -173.824000 -10.467100 1.010920 39.081100 -0.000007 -0.000012 -0.230712 0.326962 35.208200 40.985400 -0.000006 -0.000013 0.276806 4.434580 -71.589600 11.754300 -0.000000 0.000003 -0.000167 -0.001588 -16.637700 -2.192510 6.469440 -0.000001 173.619000 19.663000 -177.533000 -39.081100 -0.002282 -0.040193 -0.245596 0.366252 34.198700 -40.985400 0.000008 0.000006 3.956430 12.831300 -71.735400 -11.754300 -0.000006 -0.000006 -0.002474 -0.034498 -17.975900
0.000000 0.000000 0.000000 0.000000 0.000000 -0.000000 -0.915347 90.057700 -1.571470 89.032900 -3.845390 14.446300 15.735700 0.000005 -0.000001 88.790200 77.455700 -88.998200 8.984550 -0.406207 -0.000000 17.316600 -0.537928 -0.334761 16.377300 -0.000001 -0.000001 7.892200 -3.779790 2.482620 6.456720 -0.000001 -0.000000 -0.709663 -3.045230 0.937345 12.994200 -0.242716 4.980390 -91.433600 6.875600 -78.192700 5.348090 -0.000007 -0.000001 -59.354600 31.543700 -25.232900 24.328600 0.000019 0.000005 11.298000 20.736100 -29.433900 22.291600 -0.000001 0.000005 13.059000 5.229050 1.978940 12.994500 -0.242716 -4.980390 89.067900 11.707800 -85.416200 -5.348130 -0.000001 -0.000004 -58.158400 33.221600 -20.889600 -24.328900 0.000322 -0.000009 3.727150 6.888870 -28.512400 -22.291500 -0.000108 -0.000004 16.060700 5.390350 -2.626540 -2.192480 -6.469440 -0.000000 -173.841000 -10.437200 1.009390 39.081100 -0.000007 -0.000012 -0.229715 0.325575 35.206000 40.985400 -0.000006 -0.000013 0.281201 4.427490 -71.544900 11.754300 -0.000000 0.000003 -0.000150 -0.001454 -16.632800 -2.192510 6.469440 -0.000001 173.592000 19.720400 -177.529000 -39.081100 -0.002282 -0.040193 -0.244054 0.363909 34.204000 -40.985400 0.000008 0.000006 3.964830 12.846600 -71.694800 -11.754300 -0.000006 -0.000006 -0.002426 -0.033923 -17.952600
0.000000 0.000000 0.000000 0.000000 0.000000 -0.000000 -0.905817 90.062100 -1.634450 89.054600 -3.868700 14.491900 15.735700 0.000005 -0.000001 88.808000 77.444100 -89.024600 8.984550 -0.406207 -0.000000 17.339800 -0.531492 -0.352928 16.377300 -0.000001 -0.000001 7.891080 -3.826280 2.508540 6.456720 -0.000001 -0.000000 -0.673890 -3.050290 0.946126 12.994200 -0.242716 4.980390 -91.443300 6.862190 -78.092100 5.348090 -0.000007 -0.000001 -59.980300 30.113800 -24.757400 24.328600 0.000019 0.000005 12.329900 20.867000 -31.535100 22.291600 -0.000001 0.000005 13.581900 5.215930 2.316330 12.994500 -0.242716 -4.980390 89.035400 11.718100 -85.260800 -5.348130 -0.000001 -0.000004 -58.410400 32.154200 -20.546500 -24.328900 0.000322 -0.000009 4.337200 7.332150 -30.726800 -22.291500 -0.000108 -0.000004 16.573900 5.392300 -2.688690 -2.192480 -6.469440 -0.000000 -173.847000 -10.514500 1.018130 39.081100 -0.000007 -0.000012 -0.228599 0.324128 35.194700 40.985400 -0.000006 -0.000013 0.302667 4.459030 -71.493700 11.754300 -0.000000 0.000003 -0.000155 -0.001496 -16.634400 -2.192510 6.469440 -0.000001 173.590000 19.657400 -177.544000 -39.081100 -0.002282 -0.040193 -0.242957 0.362155 34.214400 -40.985400 0.000008 0.000006 3.952360 12.796200 -71.651300 -11.754300 -0.000006 -0.000006 -0.002347 -0.032985 -17.914400
